<?xml version="1.0"?>
<svg xmlns="http://www.w3.org/2000/svg" viewBox="0 0 512 512" width="512" height="512"><g id="Fill_out_line" data-name="Fill out line"><path d="M128,136a39.93407,39.93407,0,0,1-16,32v16H64V168a40,40,0,1,1,64-32Z" style="fill:#eedc9a"/><path d="M184,152h36a0,0,0,0,1,0,0v64a0,0,0,0,1,0,0H184a32,32,0,0,1-32-32V184A32,32,0,0,1,184,152Z" style="fill:#f2c194"/><path d="M392,152h32a0,0,0,0,1,0,0v64a0,0,0,0,1,0,0H392a32,32,0,0,1-32-32V184A32,32,0,0,1,392,152Z" transform="translate(784 368) rotate(180)" style="fill:#f2c194"/><path d="M488,496H88a147.86476,147.86476,0,0,1,13.24-61.12988,131.66922,131.66922,0,0,1,89.71-73.68018l33.36011-7.8501,15.02-3.54A32.00572,32.00572,0,0,0,264,318.66016V296h48v22.66016a32.00572,32.00572,0,0,0,24.66992,31.13964l15.02,3.54,33.36011,7.8501a131.69056,131.69056,0,0,1,89.71,73.68018A147.82677,147.82677,0,0,1,488,496Z" style="fill:#c4d4e0"/><path d="M248,496H88a147.86476,147.86476,0,0,1,13.24-61.12988,131.6643,131.6643,0,0,1,82.31006-71.71c2.43994-.73,4.90991-1.38037,7.3999-1.97022l33.36011-7.8501L239.01,417.02a350.79967,350.79967,0,0,1,8.88989,70.91992Q248.005,491.96021,248,496Z" style="fill:#396795"/><path d="M192,456l16-40H176l7.55-52.83984c2.43994-.73,4.90991-1.38037,7.3999-1.97022l33.36011-7.8501L239.01,417.02a350.79967,350.79967,0,0,1,8.88989,70.91992Z" style="fill:#26507a"/><path d="M488,496H328q0-4.03491.1001-8.06006A350.79967,350.79967,0,0,1,336.99,417.02l14.7-63.68018,33.36011,7.8501q3.735.87012,7.3999,1.97022a131.69146,131.69146,0,0,1,82.31006,71.71A147.82677,147.82677,0,0,1,488,496Z" style="fill:#396795"/><path d="M368,416l16,40-55.8999,31.93994A350.79967,350.79967,0,0,1,336.99,417.02l14.7-63.68018,33.36011,7.8501q3.735.87012,7.3999,1.97022L400,416Z" style="fill:#26507a"/><polygon points="288 360 256 400 216 352 240 336 288 360" style="fill:#a6b2bc"/><polygon points="360 352 320 400 288 360 336 336 360 352" style="fill:#a6b2bc"/><path d="M376,104V216.00009A87.99991,87.99991,0,0,1,288.00009,304h-.00018A87.99991,87.99991,0,0,1,200,216.00009V104.6536Z" style="fill:#f4ceaf"/><path d="M392,104v48H376l-40-32L231.56006,149.83984A56.13721,56.13721,0,0,1,160,95.85986V72c0-15.98,13.07007-26.57007,26.7-26.57007A25.96017,25.96017,0,0,1,205.25,53.25a26.50832,26.50832,0,0,0,37.5,0l15.18994-15.18994A48.00341,48.00341,0,0,1,291.87988,24H312a48.004,48.004,0,0,1,48,48A32.00409,32.00409,0,0,1,392,104Z" style="fill:#ad7d4d"/><rect x="272" y="232" width="32" height="48" rx="15.99998" ry="15.99998" style="fill:#e7999b"/><path d="M72,200h32a0,0,0,0,1,0,0v8a16,16,0,0,1-16,16h0a16,16,0,0,1-16-16v-8A0,0,0,0,1,72,200Z" style="fill:#eebe33"/><rect x="56" y="176" width="64" height="24" rx="11.99999" ry="11.99999" style="fill:#a6b2bc"/><path d="M322.79,342.60986,288,360l-34.79-17.39014A31.94124,31.94124,0,0,0,264,318.66016V296h48v22.66016A31.94124,31.94124,0,0,0,322.79,342.60986Z" style="fill:#f4ceaf"/><path d="M128,424v72H24V424a15.99564,15.99564,0,0,1,16-16h72A15.99564,15.99564,0,0,1,128,424Z" style="fill:#396795"/><path d="M120,320v16a15.99564,15.99564,0,0,1-16,16v7.06006a37.59185,37.59185,0,0,1-1.07007,8.91992A36.913,36.913,0,0,1,100,376a37.77132,37.77132,0,0,0-4,16.93994V408H40V320a15.99564,15.99564,0,0,1,16-16h48A15.99564,15.99564,0,0,1,120,320Z" style="fill:#f4ceaf"/><path d="M88,248h0a16,16,0,0,1,16,16v40a0,0,0,0,1,0,0H72a0,0,0,0,1,0,0V264a16,16,0,0,1,16-16Z" style="fill:#f4ceaf"/><path d="M112,400h-8v-7.05566a30.03089,30.03089,0,0,1,3.15527-13.36622A46.12406,46.12406,0,0,0,112,359.05566v-.42675A24.04166,24.04166,0,0,0,128,336V320a24.03919,24.03919,0,0,0-16-22.624V264a24,24,0,0,0-48,0v32H56a24.0275,24.0275,0,0,0-24,24v81.376A24.03919,24.03919,0,0,0,16,424v72H32V424a8.00917,8.00917,0,0,1,8-8h72a8.00917,8.00917,0,0,1,8,8v72h16V424A24.0275,24.0275,0,0,0,112,400ZM80,264a8,8,0,0,1,16,0v32H80ZM56,312h48a8.00917,8.00917,0,0,1,8,8v16a8,8,0,0,1-16,0,8,8,0,0,0-16,0,24.04166,24.04166,0,0,0,16,22.62891v.42675a30.03089,30.03089,0,0,1-3.15527,13.36622A46.12406,46.12406,0,0,0,88,392.94434V400H48V320A8.00917,8.00917,0,0,1,56,312Z"/><path d="M288.41016,210.53027a8.0005,8.0005,0,1,0,15.17968-5.06054l-8-24a8.0005,8.0005,0,0,0-15.17968,5.06054Z"/><circle cx="240" cy="176" r="8"/><circle cx="336" cy="176" r="8"/><path d="M320,168h32a8,8,0,0,0,0-16H320a8,8,0,0,0,0,16Z"/><path d="M492.46875,463.03613A156.24445,156.24445,0,0,0,482.043,431.55957a139.66835,139.66835,0,0,0-95.15918-78.15625l-19.55371-4.60644V348.79a7.932,7.932,0,0,0-2.89014-3.4502l-24-16a8.02487,8.02487,0,0,0-8.02-.5l-7.82983,3.91993A23.95251,23.95251,0,0,1,320,318.66016V306.52979A96.43494,96.43494,0,0,0,383.65991,224H392a40.00447,40.00447,0,0,0,8-79.19995V104a40.0678,40.0678,0,0,0-32.47-39.29A56.08839,56.08839,0,0,0,312,16H291.87988A55.66721,55.66721,0,0,0,252.28,32.3999L237.09009,47.6001a18.51743,18.51743,0,0,1-26.18018,0A34.5083,34.5083,0,0,0,152,72V95.85986A63.938,63.938,0,0,0,175.01,145.02,40.00185,40.00185,0,0,0,184,224h8.33008a95.20288,95.20288,0,0,0,27.79,59.87012A96.17248,96.17248,0,0,0,256,306.52979v12.13037a23.95251,23.95251,0,0,1-4.59009,14.09961l-7.82983-3.91993a8.02487,8.02487,0,0,0-8.02.5l-24,16a7.932,7.932,0,0,0-2.89014,3.4502v.00732l-19.55176,4.606a139.98846,139.98846,0,0,0-62.043,32.68164L137.84668,397.915a123.94406,123.94406,0,0,1,35.91064-22.7876l-5.67724,39.74072A8.00061,8.00061,0,0,0,176,424h20.18359l-11.61132,29.0293a7.99955,7.99955,0,0,0,3.459,9.917l51.94482,29.68262c.011,1.124.02393,2.24755.02393,3.37109h16a360.12407,360.12407,0,0,0-9.19531-80.7793L242.417,396.207l.00293.00293,7.43018,8.91016A8.00776,8.00776,0,0,0,262.25,405L288,372.81006,313.75,405a8.01173,8.01173,0,0,0,6.16992,3H320a8.011,8.011,0,0,0,6.1499-2.87988l7.42017-8.89014.01-.02.00244-.00293-4.38818,19.01563A360.14916,360.14916,0,0,0,320,496h16c0-1.12354.01294-2.24707.02393-3.37109l51.94482-29.68262a7.99955,7.99955,0,0,0,3.459-9.917L379.81641,424H400a8.00061,8.00061,0,0,0,7.91992-9.13184l-5.67285-39.709a124.59215,124.59215,0,0,1,65.22852,63.01953A139.8376,139.8376,0,0,1,480,496h16A155.88411,155.88411,0,0,0,492.46875,463.03613ZM392,160a24,24,0,0,1,0,48h-8V160ZM192,208h-8a24,24,0,0,1,0-48h8ZM168,95.85986V72a18.5131,18.5131,0,0,1,31.6001-13.09009,34.53474,34.53474,0,0,0,48.7998,0L263.6001,43.72A39.70963,39.70963,0,0,1,291.87988,32H312a40.052,40.052,0,0,1,39.87012,36.81006l-5.53,5.52978a8.00441,8.00441,0,1,0,11.31982,11.32007l5.45-5.46A24.03735,24.03735,0,0,1,384,104v40h-5.18994L344,116.15991V112a8,8,0,0,0-16,0v1.97L229.35986,142.1499A48.142,48.142,0,0,1,168,95.85986Zm34.0127,356.648,13.415-33.53711A7.999,7.999,0,0,0,208,408H185.22363l5.501-38.50293c.68652-.17432,1.37012-.35742,2.05957-.51953L215.311,363.6709l4.395,5.27441,11.50782,49.8711a344.2328,344.2328,0,0,1,8.05664,54.98144Zm53.85742-65.15771-28.02-33.63037,12.73-8.48975,34.99,17.5Zm9.96-47.38037A39.92651,39.92651,0,0,0,272,318.66016v-17.98a8.01024,8.01024,0,0,0-5.82007-7.7002A80.0884,80.0884,0,0,1,208,216V159.48a63.9704,63.9704,0,0,0,8,.52,7.9979,7.9979,0,0,0,8,8h32a8,8,0,0,0,0-16h-2.87988L334.23,128.83008l33.77,27.02V216a80.25378,80.25378,0,0,1-58.17993,76.98A8.01024,8.01024,0,0,0,304,300.68018v17.98a39.92651,39.92651,0,0,0,6.16992,21.30957L288,351.06006Zm54.2998,47.38037L300.42993,362.73l34.99-17.5,12.73,8.48975ZM390.77637,408H368a7.999,7.999,0,0,0-7.42773,10.9707l13.415,33.53711-37.25781,21.29a344.27367,344.27367,0,0,1,8.05567-54.97949l11.50879-49.873,4.39526-5.27441,22.52856,5.30664c.689.16211,1.37207.34228,2.05713.51611Z"/><path d="M312,264V248a24,24,0,0,0-48,0v16a24,24,0,0,0,48,0Zm-16,0a8,8,0,0,1-16,0V248a8,8,0,0,1,16,0Z"/><rect x="80" y="64" width="16" height="16"/><rect x="125.25436" y="82.74459" width="16.00105" height="16.00105" transform="translate(-25.13704 120.80406) rotate(-45)"/><rect x="144" y="128" width="16" height="16"/><rect x="34.74459" y="82.74459" width="16.00105" height="16.00105" transform="translate(-51.64673 56.80399) rotate(-45)"/><rect x="16" y="128" width="16" height="16"/><path d="M56.1499,171.89014A20.002,20.002,0,0,0,64,207.6001V208a24,24,0,0,0,48,0v-.3999a20.002,20.002,0,0,0,7.8501-35.71,48,48,0,1,0-63.7002,0ZM81.76,148.26H94.24l-3.92993,19.65991C89.55005,167.97,88.78,168,88,168s-1.55-.03-2.31006-.08008ZM88,216a8.01074,8.01074,0,0,1-8-8H96A8.01074,8.01074,0,0,1,88,216Zm20-24H68a4,4,0,0,1,0-8h40a4,4,0,0,1,0,8ZM88,104a31.99054,31.99054,0,0,1,20.02,56.95l3.82007-19.11987A7.99194,7.99194,0,0,0,104,132.26H72a7.99194,7.99194,0,0,0-7.84009,9.57007L67.98,160.95A31.99054,31.99054,0,0,1,88,104Z"/></g></svg>
