<?xml version="1.0" encoding="iso-8859-1"?>
<!-- Generator: Adobe Illustrator 16.0.0, SVG Export Plug-In . SVG Version: 6.00 Build 0)  -->
<!DOCTYPE svg PUBLIC "-//W3C//DTD SVG 1.1//EN" "http://www.w3.org/Graphics/SVG/1.1/DTD/svg11.dtd">
<svg version="1.1" id="Capa_1" xmlns="http://www.w3.org/2000/svg" xmlns:xlink="http://www.w3.org/1999/xlink" x="0px" y="0px"
	 width="58.891px" height="58.89px" viewBox="0 0 58.891 58.89" style="enable-background:new 0 0 58.891 58.89;"
	 xml:space="preserve">
<g>
	<g>
		<path d="M27.267,57.739c2.193,2.598,4.104,0.24,5.646-1.588c4.197-4.975,8.396-9.948,12.594-14.922
			c1.301-1.542,6.492-6.006,2.24-7.246c-0.073-0.021-0.156-0.026-0.242-0.02c-0.038-0.004-0.066-0.015-0.11-0.015
			c-2.556,0-7.728,0.143-7.728-3.345c0-1.258,0.043-1.822-0.436-2.977c-0.418-1.009-2.66-0.732-3.473-0.732
			c-4.687,0-11.182-1.287-15.573,0.531c-2.976,1.231,1.56,6.521-5.07,6.521c-1.976,0-3.962-0.444-5.361,1.153
			c-1.63,1.86,5.064,7.889,5.932,8.918C19.546,48.592,23.406,53.166,27.267,57.739z M22.944,48.541
			c1.634-2.853,3.293-5.688,5.002-8.487c1.948-3.188,4.003-6.314,5.978-9.482c0.327-0.525,0.328-0.525,0.005,0.003
			c-3.657,5.992-7.294,11.996-10.956,17.984C22.65,49.086,22.636,49.078,22.944,48.541z M26.118,54.367
			c-0.228-0.322-0.449-0.633-0.66-0.92c0.108-0.053,0.21-0.134,0.287-0.271c0.135-0.245,0.269-0.488,0.406-0.731
			c3.237-4.918,6.456-9.852,9.697-14.768c0.341-0.517,0.421-0.473,0.167,0.092c-0.341,0.758-0.698,1.509-1.071,2.251
			c-2.699,4.591-5.479,9.13-8.508,13.51C26.253,53.793,26.146,54.094,26.118,54.367z M38.885,46.617
			c-0.091,0.258-0.183,0.517-0.274,0.775c-0.044,0.125-0.064,0.216-0.077,0.295c-0.42,0.498-0.841,0.997-1.261,1.494
			c0.183-0.341,0.363-0.682,0.549-1.021c0.298-0.54,0.594-1.08,0.892-1.621C39.012,45.998,39.091,46.034,38.885,46.617z
			 M47.111,36.175c0.188-0.372,0.261-0.762,0.215-1.019c0.219,0.229,0.257,0.575,0.164,0.999c-0.051,0.094-0.102,0.189-0.155,0.296
			c-0.322,0.633-0.643,1.268-0.962,1.902c-0.034,0.066-0.045,0.104-0.067,0.156c-0.454,0.671-0.993,1.376-1.558,2.067
			c0.212-0.315,0.409-0.635,0.547-0.892C45.915,38.524,46.52,37.353,47.111,36.175z M44.983,34.94
			c0.365,0.005,0.738,0.008,1.124,0.008c-0.182,0.175-0.4,0.482-0.585,0.85c-0.89,1.776-1.807,3.538-2.752,5.285
			c-0.296,0.545-0.366,0.512-0.146-0.065c0.549-1.448,1.136-2.879,1.729-4.306c0.239-0.571,0.552-1.23,0.702-1.475
			C45.128,35.121,45.091,35.018,44.983,34.94z M38.588,31.971c0.777,2.263,2.698,2.807,5.314,2.935
			c-0.396,0.163-0.787,0.491-0.99,0.878c-0.344,0.646-0.688,1.292-1.036,1.936c-3.708,6.224-7.308,12.509-10.83,18.84
			c-0.014,0.016-0.026,0.03-0.039,0.047c-1.496,1.771-2.974,0.333-4.257-1.371c0.106-0.008,0.206-0.046,0.276-0.143
			c0.106-0.146,0.212-0.293,0.317-0.439c3.511-4.796,6.873-9.711,9.505-14.99c0.885-1.509,1.764-3.023,2.64-4.539
			c0.311-0.537,0.096-1.197-0.32-1.656c-0.366-0.401-0.579-0.874-0.579-1.382V31.971z M24.512,28.923
			c0.315-0.532,0.072-0.962-0.546-0.962H23.07c-0.62,0-1.367,0.438-1.669,0.979c-0.117,0.208-0.234,0.416-0.351,0.624
			c0.21-1.146,0.676-1.67,2.9-1.67c1.415,0,8.876-0.704,12.398,0.069c0.003,0,0.004,0,0.007,0c0.009,0,0.015,0.006,0.023,0.006
			c0.563,0.126,1.035,0.286,1.351,0.498c-0.221,0.104-0.44,0.316-0.578,0.586c-2.459,4.839-4.958,9.655-7.573,14.401
			c-0.829,1.487-1.657,2.967-2.509,4.408c-0.744,1.26-1.473,2.526-2.193,3.799c-0.099,0.164-0.196,0.331-0.294,0.496
			c-0.025,0.042-0.032,0.098-0.045,0.148c-0.474-0.561-0.947-1.121-1.42-1.683c0.199-0.046,0.39-0.164,0.528-0.391
			c4.347-7.091,8.648-14.211,12.956-21.312c0.314-0.518,0.211-0.936-0.221-0.953c-0.01-0.002-0.021-0.004-0.03-0.006
			c-0.453,0.001-0.883,0.105-0.963,0.235c-0.079,0.129-0.081,0.13-0.005,0c0.077-0.13-0.233-0.235-0.691-0.235
			c-0.457,0-1.083,0.431-1.402,0.961c-2.833,4.697-5.939,9.247-8.733,13.954c-0.981,1.655-1.952,3.317-2.913,4.987
			c-0.133,0.23-0.181,0.515-0.177,0.801c-0.483-0.573-0.967-1.146-1.45-1.718c0.173-0.075,0.344-0.218,0.478-0.452
			c0.83-1.448,1.66-2.894,2.487-4.343c2.827-4.524,5.803-8.956,8.923-13.284c0.361-0.502,0.278-0.907-0.188-0.907
			c-0.467,0-0.966,0.167-1.113,0.375c-0.146,0.207-0.181,0.207-0.075,0c0.105-0.207-0.193-0.375-0.667-0.375
			c-0.473,0-1.082,0.448-1.363,1c-2.29,4.473-4.743,8.863-7.24,13.236c-0.622,0.996-1.236,1.998-1.843,3.002
			c-0.14,0.233-0.21,0.502-0.231,0.762c-0.926-1.097-1.852-2.193-2.778-3.291c0.203-0.043,0.395-0.17,0.531-0.41
			C19.461,37.813,21.908,33.312,24.512,28.923z M12.716,38.301c-0.457-0.541-0.913-1.081-1.369-1.622
			c-0.172-0.203-0.242-0.379-0.263-0.54c0.088-0.069,0.201-0.212,0.315-0.425c0.046-0.087,0.073-0.162,0.099-0.234
			c0.765-0.439,2.396-0.573,3.729-0.621c-0.397,0.133-0.836,0.475-1.094,0.884c-0.376,0.6-0.755,1.198-1.138,1.794
			C12.839,37.777,12.75,38.047,12.716,38.301z M14.916,40.908c-0.22-0.26-0.439-0.521-0.659-0.78
			c-0.28-0.331-0.559-0.662-0.838-0.993c0.183-0.076,0.372-0.229,0.528-0.468c0.636-0.969,1.262-1.944,1.88-2.927
			c0.288-0.456,0.504-0.82,0.548-0.91c0.35-0.007,0.624-0.012,0.753-0.026c0.528-0.057,1.243-0.301,1.89-0.662
			c-0.475,0.354-1.032,0.837-1.289,1.288c-0.879,1.546-1.758,3.092-2.637,4.637C14.954,40.308,14.904,40.609,14.916,40.908z"/>
		<path d="M20.947,25.018c0.001,0,0.001,0,0.002,0c0.063,0.025,0.151,0.042,0.288,0.042c5.086,0,10.171,0,15.258,0
			c1.518,0,2.729-0.331,3.161-1.931c0.462-1.706,0.481-5.2-1.729-5.517c-4.817-0.69-10.188-0.009-15.056-0.009
			c-0.969,0-2.986-0.045-3.323,1.194C19.026,20.719,18.607,24.384,20.947,25.018z M35.519,18.333c0.538,0,1.077,0,1.615,0
			c1.736,0,1.349,5.996,0.454,5.996c-0.56,0-1.118,0-1.677,0c0.484-0.178,0.953-0.496,1.204-0.876
			c0.053-0.077,0.103-0.155,0.153-0.232c0.376-0.568,0.68-1.58,0.68-2.261v-1.414c0-0.289-0.09-0.556-0.243-0.776
			c-0.263-0.373-0.899-0.01-1.216,0.593c-0.708,1.349-1.425,2.692-2.147,4.032c-0.216,0.399-0.154,0.745,0.109,0.933
			c-0.575,0-1.15,0-1.727,0c-0.291,0-0.581,0-0.872,0c0.359-0.181,0.735-0.509,0.975-0.9c0.854-1.399,1.709-2.798,2.563-4.197
			C35.628,18.84,35.654,18.512,35.519,18.333z M33.792,18.333c0.31,0,0.619,0,0.929,0c-0.358,0.181-0.732,0.508-0.971,0.899
			c-0.857,1.4-1.715,2.798-2.572,4.197c-0.24,0.392-0.265,0.719-0.128,0.9c-0.275,0-0.55,0-0.825,0
			c0.173-0.077,0.315-0.176,0.382-0.287c0.087-0.147,0.174-0.294,0.264-0.438c0.904-1.473,1.831-2.931,2.761-4.386
			C33.877,18.833,33.915,18.51,33.792,18.333z M33.015,18.333c-0.353,0.179-0.728,0.501-0.975,0.886
			c-0.899,1.402-1.799,2.805-2.682,4.215c-0.243,0.389-0.272,0.714-0.137,0.895c-0.924,0-1.848,0-2.772,0
			c0.374-0.179,0.762-0.501,1.009-0.886c0.919-1.424,1.855-2.838,2.804-4.243c0.255-0.377,0.222-0.691-0.009-0.868
			C31.174,18.333,32.095,18.333,33.015,18.333z M23.864,19.254c0.223-0.395,0.169-0.735-0.089-0.922c0.606,0,1.212,0,1.818,0
			c1.177,0,2.354,0,3.531,0c-0.461,0.185-0.9,0.524-1.124,0.929c-0.766,1.387-1.543,2.769-2.327,4.149
			c-0.227,0.399-0.233,0.734-0.075,0.918c-1.19,0-2.379,0-3.569,0c-0.272-0.109-0.505-0.359-0.695-0.713
			c0.106-0.109,0.207-0.242,0.292-0.392C22.373,21.899,23.118,20.575,23.864,19.254z M21.282,18.333c0.064,0,0.128,0,0.192,0
			c-0.129,0.179-0.335,0.508-0.557,0.896c-0.083,0.146-0.162,0.322-0.234,0.514C20.746,18.927,20.943,18.333,21.282,18.333z"/>
		<path d="M20.944,16.271c0.002,0,0.006,0,0.008,0c0.062,0.022,0.15,0.035,0.28,0.035c5.086,0,10.172,0,15.257,0
			c1.511,0,2.733-0.328,3.164-1.92c0.449-1.657,0.445-5.026-1.725-5.294c-4.867-0.6-10.149-0.006-15.055-0.006
			c-0.958,0-2.993-0.044-3.325,1.184C19.035,12.17,18.646,15.65,20.944,16.271z M35.545,9.788c0.527,0,1.057,0,1.586,0
			c1.717,0,1.354,5.816,0.462,5.816c-0.495,0-0.99,0-1.485,0c0.402-0.188,0.773-0.464,0.985-0.786
			c0.052-0.077,0.102-0.155,0.153-0.232c0.375-0.568,0.68-1.58,0.68-2.261v-1.414c0-0.289-0.09-0.556-0.244-0.776
			c-0.262-0.373-0.899-0.01-1.215,0.593c-0.708,1.349-1.425,2.692-2.148,4.032c-0.185,0.343-0.164,0.644,0.011,0.843
			c-0.533,0-1.066,0-1.601,0c-0.247,0-0.493,0-0.739,0c0.309-0.193,0.611-0.477,0.815-0.81c0.854-1.399,1.709-2.798,2.564-4.197
			C35.569,10.264,35.614,9.981,35.545,9.788z M33.812,9.788c0.242,0,0.483,0,0.726,0c-0.307,0.192-0.608,0.476-0.812,0.809
			c-0.856,1.4-1.715,2.798-2.572,4.197c-0.204,0.333-0.249,0.618-0.177,0.81c-0.203,0-0.406,0-0.609,0
			c0.093-0.06,0.172-0.125,0.215-0.197c0.087-0.147,0.174-0.294,0.263-0.438c0.905-1.473,1.831-2.931,2.761-4.386
			C33.816,10.257,33.873,9.979,33.812,9.788z M30.324,9.788c0.837,0,1.672,0,2.508,0c-0.304,0.19-0.605,0.469-0.815,0.796
			c-0.9,1.402-1.798,2.805-2.681,4.215c-0.207,0.33-0.254,0.613-0.185,0.805c-0.852,0-1.704,0-2.555,0
			c0.318-0.19,0.631-0.469,0.841-0.796c0.919-1.424,1.855-2.838,2.804-4.243C30.456,10.248,30.461,9.976,30.324,9.788z
			 M23.841,10.62c0.191-0.338,0.177-0.635,0.009-0.832c0.579,0,1.159,0,1.739,0c1.105,0,2.211,0,3.317,0
			c-0.386,0.198-0.738,0.492-0.929,0.839c-0.766,1.387-1.543,2.769-2.327,4.149c-0.194,0.342-0.222,0.632-0.132,0.828
			c-1.159,0-2.317,0-3.475,0c-0.264-0.102-0.493-0.341-0.682-0.681c0.087-0.098,0.17-0.208,0.241-0.334
			C22.35,13.266,23.094,11.942,23.841,10.62z M21.278,9.788c0.037,0,0.074,0,0.111,0c-0.13,0.191-0.306,0.475-0.495,0.807
			c-0.073,0.127-0.142,0.283-0.206,0.447C20.753,10.311,20.947,9.788,21.278,9.788z"/>
		<path d="M20.946,7.753c0.064,0.026,0.152,0.044,0.292,0.044c5.086,0,10.172,0,15.258,0c1.521,0,2.727-0.332,3.16-1.935
			c0.465-1.718,0.482-5.208-1.73-5.54c-4.8-0.719-10.201-0.01-15.056-0.01c-0.973,0-2.985-0.046-3.322,1.198
			C19.025,3.435,18.604,7.118,20.946,7.753z M35.465,1.051c0.557,0,1.114,0,1.67,0c1.735,0,1.349,6.005,0.452,6.005
			c-0.57,0-1.141,0-1.71,0c0.48-0.179,0.943-0.494,1.192-0.871c0.053-0.077,0.103-0.155,0.153-0.232
			c0.376-0.568,0.68-1.58,0.68-2.261V2.279c0-0.289-0.09-0.556-0.244-0.776c-0.262-0.373-0.898-0.01-1.215,0.593
			c-0.708,1.349-1.425,2.692-2.147,4.032c-0.214,0.396-0.156,0.739,0.102,0.928c-0.558,0-1.116,0-1.674,0c-0.303,0-0.604,0-0.908,0
			c0.357-0.183,0.729-0.508,0.966-0.895c0.854-1.399,1.709-2.798,2.564-4.197C35.588,1.565,35.612,1.229,35.465,1.051z
			 M33.738,1.051c0.32,0,0.641,0,0.96,0c-0.364,0.178-0.75,0.513-0.994,0.913c-0.857,1.4-1.716,2.798-2.572,4.197
			c-0.238,0.388-0.264,0.713-0.13,0.895c-0.271,0-0.542,0-0.813,0c0.168-0.077,0.308-0.173,0.372-0.282
			c0.087-0.146,0.174-0.293,0.263-0.438c0.905-1.473,1.831-2.931,2.762-4.386C33.837,1.558,33.874,1.228,33.738,1.051z
			 M32.993,1.051c-0.36,0.176-0.746,0.506-0.999,0.899c-0.899,1.402-1.799,2.805-2.682,4.215c-0.241,0.385-0.271,0.708-0.14,0.89
			c-0.92,0-1.84,0-2.76,0c0.371-0.18,0.755-0.5,1-0.881c0.919-1.424,1.855-2.838,2.804-4.243c0.261-0.386,0.223-0.708-0.023-0.881
			C31.127,1.051,32.06,1.051,32.993,1.051z M23.818,1.987c0.229-0.405,0.166-0.753-0.11-0.936c0.628,0,1.257,0,1.886,0
			c1.171,0,2.342,0,3.514,0c-0.472,0.182-0.925,0.529-1.154,0.942c-0.766,1.387-1.543,2.77-2.327,4.149
			c-0.225,0.396-0.232,0.729-0.079,0.913c-1.175,0-2.349,0-3.524,0c-0.278-0.113-0.514-0.375-0.707-0.743
			c0.095-0.101,0.185-0.221,0.262-0.356C22.327,4.632,23.071,3.31,23.818,1.987z M21.283,1.051c0.052,0,0.103,0,0.155,0
			c-0.128,0.175-0.34,0.513-0.566,0.91c-0.064,0.113-0.123,0.253-0.182,0.395C20.761,1.595,20.958,1.051,21.283,1.051z"/>
		<path d="M37.799,23.25c-0.048,0.108-0.097,0.215-0.15,0.32c-0.074,0.127-0.149,0.253-0.226,0.379
			c-0.126,0.209,0.103,0.229,0.321-0.122c0.13-0.207,0.204-0.451,0.204-0.713c0,0,0-0.041,0-0.091
			C37.947,22.971,37.88,23.073,37.799,23.25z"/>
		<path d="M37.775,14.616c-0.048,0.108-0.097,0.215-0.149,0.32c-0.074,0.127-0.15,0.253-0.227,0.379
			c-0.126,0.209,0.104,0.229,0.321-0.122c0.13-0.207,0.205-0.451,0.205-0.713c0,0,0-0.041,0-0.091
			C37.925,14.337,37.856,14.44,37.775,14.616z"/>
		<path d="M37.753,5.983c-0.048,0.108-0.098,0.215-0.15,0.32c-0.074,0.127-0.149,0.253-0.226,0.379
			c-0.126,0.209,0.103,0.229,0.32-0.122c0.131-0.207,0.205-0.451,0.205-0.713c0,0,0-0.041,0-0.091
			C37.901,5.704,37.834,5.806,37.753,5.983z"/>
	</g>
</g>
<g>
</g>
<g>
</g>
<g>
</g>
<g>
</g>
<g>
</g>
<g>
</g>
<g>
</g>
<g>
</g>
<g>
</g>
<g>
</g>
<g>
</g>
<g>
</g>
<g>
</g>
<g>
</g>
<g>
</g>
</svg>
